# xmcd
#
# Track frame offsets: 
#        150
#        16855
#        48400
#
# Disc length: 854 seconds
#
# Revision: 3
# Processed by: cddbd v1.5.2PL0 Copyright (c) Steve Scherf et al.
# Submitted via: ExactAudioCopy v0.99pb5
#
DISCID=19035403
DTITLE=Vengaboys - We Like To Party! (The Vengabus) [CDS 2]
DYEAR=1999
DGENRE=Pop
TTITLE0=We Like To Party! (The Vengabus) [Airplay Mix]
TTITLE1=We Like To Party! (The Vengabus) [Jason Nevins Mix]
TTITLE2=Up And Down [BCM Radio]
EXTD=
EXTT0=
EXTT1=
EXTT2=
PLAYORDER=
